<svg width="30" height="30" viewBox="0 0 30 30" fill="none" xmlns="http://www.w3.org/2000/svg">
<g clip-path="url(#clip0_51_13)">
<path d="M3.75 25H26.25V15C26.25 14.0054 25.8549 13.0516 25.1517 12.3483C24.4484 11.6451 23.4946 11.25 22.5 11.25H7.5C6.50544 11.25 5.55161 11.6451 4.84835 12.3483C4.14509 13.0516 3.75 14.0054 3.75 15V25Z" stroke="#488BFF" stroke-width="2" stroke-linecap="round" stroke-linejoin="round"/>
<path d="M3.75 18.5037C4.14 18.6724 4.5675 18.7587 5 18.7499C5.48687 18.7601 5.9689 18.6516 6.40447 18.4339C6.84003 18.2161 7.21604 17.8955 7.5 17.4999C7.78396 17.1043 8.15997 16.7838 8.59553 16.566C9.0311 16.3482 9.51313 16.2397 10 16.2499C10.4869 16.2397 10.9689 16.3482 11.4045 16.566C11.84 16.7838 12.216 17.1043 12.5 17.4999C12.784 17.8955 13.16 18.2161 13.5955 18.4339C14.0311 18.6516 14.5131 18.7601 15 18.7499C15.4869 18.7601 15.9689 18.6516 16.4045 18.4339C16.84 18.2161 17.216 17.8955 17.5 17.4999C17.784 17.1043 18.16 16.7838 18.5955 16.566C19.0311 16.3482 19.5131 16.2397 20 16.2499C20.4869 16.2397 20.9689 16.3482 21.4045 16.566C21.84 16.7838 22.216 17.1043 22.5 17.4999C22.784 17.8955 23.16 18.2161 23.5955 18.4339C24.0311 18.6516 24.5131 18.7601 25 18.7499C25.4375 18.7587 25.865 18.6724 26.25 18.5037" stroke="#488BFF" stroke-width="2" stroke-linecap="round" stroke-linejoin="round"/>
<path d="M15.0002 5L16.8315 7.0475C17.1582 7.39879 17.377 7.83669 17.4617 8.30894C17.5464 8.78118 17.4934 9.26782 17.3091 9.71077C17.1247 10.1537 16.8168 10.5343 16.4221 10.807C16.0274 11.0797 15.5625 11.2331 15.083 11.2489C14.6035 11.2646 14.1296 11.1421 13.7178 10.8958C13.3061 10.6496 12.9739 10.29 12.7609 9.86012C12.5479 9.43021 12.4631 8.9481 12.5166 8.47132C12.5701 7.99453 12.7597 7.54322 13.0627 7.17125L15.0002 5Z" stroke="#488BFF" stroke-width="2" stroke-linecap="round" stroke-linejoin="round"/>
</g>
<defs>
<clipPath id="clip0_51_13">
<rect width="30" height="30" fill="white"/>
</clipPath>
</defs>
</svg>
