<svg width="32" height="32" viewBox="0 0 32 32" fill="none" xmlns="http://www.w3.org/2000/svg">
<path d="M11.5882 27.6522C4 29.9957 4 23.4675 1 22.6305M22.1765 31V25.1414C22.1765 23.4675 22.3529 22.7979 21.2941 21.7936C26.2353 21.2914 31 19.4502 31 11.7503C30.9979 9.74989 30.1751 7.82884 28.7059 6.3938C29.3949 4.65625 29.3315 2.73071 28.5294 1.03735C28.5294 1.03735 26.5882 0.535184 22.3529 3.21341C18.7657 2.32723 14.999 2.32723 11.4118 3.21341C7.17647 0.535184 5.23529 1.03735 5.23529 1.03735C4.4332 2.73071 4.36976 4.65625 5.05882 6.3938C3.58962 7.82884 2.76685 9.74989 2.76471 11.7503C2.76471 19.4502 7.52941 21.2914 12.4706 21.7936C11.4118 22.7979 11.4118 23.8023 11.5882 25.1414V31" stroke="#488BFF" stroke-width="2" stroke-linecap="round" stroke-linejoin="round"/>
</svg>
